<?xml version="1.0" standalone="no"?>
<!DOCTYPE svg PUBLIC "-//W3C//DTD SVG 20010904//EN" "http://www.w3.org/TR/2001/REC-SVG-20010904/DTD/svg10.dtd">
<svg version="1.0" xmlns="http://www.w3.org/2000/svg" width="200pt" height="100pt" viewBox="0 0 1280.000000 735.000000"
    preserveAspectRatio="xMidYMid meet">
    <metadata>
        Created by potrace 1.15, written by Peter Selinger 2001-2017
    </metadata>
    <g transform="translate(0.000000,735.000000) scale(0.100000,-0.100000)" fill="#fff" stroke="none">
        <path d="M8165 7339 c-262 -20 -460 -58 -607 -117 -152 -61 -194 -102 -288
-277 -185 -349 -409 -663 -630 -885 -241 -243 -491 -381 -688 -381 -43 0 -89
4 -103 9 -44 17 -94 85 -164 223 -128 252 -199 329 -304 329 l-40 0 -11 58
c-14 73 -17 82 -28 82 -19 0 -33 -29 -44 -90 -11 -59 -14 -63 -62 -94 -165
-105 -257 -316 -292 -666 -25 -257 -42 -368 -62 -413 -34 -74 -86 -123 -183
-171 -264 -132 -539 -173 -1106 -163 -186 3 -374 12 -453 21 -165 19 -273 20
-323 1 -123 -43 -340 -209 -532 -406 -317 -324 -614 -736 -968 -1342 -154
-262 -265 -471 -552 -1042 -398 -794 -507 -1056 -637 -1540 -94 -352 -104
-419 -66 -455 12 -11 25 -20 28 -20 12 0 58 55 94 112 41 65 51 73 87 70 31
-4 66 33 124 127 29 47 41 59 51 50 38 -31 144 103 255 322 23 46 34 59 46 55
24 -9 100 75 152 169 25 43 58 91 75 106 17 15 49 57 71 93 30 49 44 64 57 60
38 -12 98 45 148 140 16 30 32 46 44 46 27 0 78 58 111 127 28 60 29 61 64 56
46 -6 76 24 130 126 22 43 50 79 66 89 16 10 46 50 70 92 38 70 43 75 75 75
26 0 37 6 51 30 10 16 27 36 38 45 11 8 31 35 44 60 14 27 31 45 41 45 9 0 30
19 45 42 18 27 32 38 38 32 15 -15 40 0 54 34 19 44 68 97 91 97 10 0 26 12
35 28 34 60 319 259 466 326 161 74 179 80 217 78 30 -2 41 2 50 18 8 15 21
20 50 20 25 0 42 6 48 15 7 13 14 14 36 5 49 -18 85 -13 98 15 7 16 19 25 34
25 13 0 27 7 32 16 7 13 13 14 30 5 34 -18 62 -13 72 13 8 22 13 24 51 19 35
-5 44 -3 59 17 17 22 21 23 80 13 50 -8 64 -7 76 4 8 8 11 19 8 25 -7 11 43 7
78 -7 13 -5 20 0 28 20 9 24 14 26 44 21 20 -4 37 -2 41 4 3 5 24 10 45 10 21
0 42 5 45 11 5 6 27 8 61 3 44 -5 55 -3 60 9 4 12 11 14 31 6 39 -15 64 -11
70 11 5 17 11 19 38 14 22 -4 37 -1 45 8 11 11 24 12 63 4 42 -9 52 -8 60 5 8
13 17 14 47 6 20 -6 46 -7 56 -2 10 4 29 7 42 6 14 -2 22 3 22 13 0 13 5 14
43 0 46 -16 87 -12 87 11 0 10 12 13 43 12 37 -2 42 0 41 20 0 21 2 22 63 16
59 -5 65 -4 69 14 4 15 17 23 45 27 22 4 45 4 50 0 5 -3 16 -1 23 5 7 6 39 15
72 20 99 15 347 70 441 97 181 54 149 58 259 -26 318 -243 517 -526 759 -1084
106 -245 137 -308 186 -373 57 -76 84 -88 199 -87 82 1 110 6 205 38 61 20
147 57 192 82 83 44 153 58 168 33 4 -5 11 -9 17 -7 10 4 38 73 38 97 0 7 34
50 77 95 79 84 133 177 133 230 0 18 -31 81 -83 170 -220 371 -374 699 -487
1035 -55 164 -124 424 -135 507 -7 47 -5 51 19 62 14 6 38 29 54 51 24 32 30
36 38 23 9 -13 15 -13 54 -1 39 13 49 22 70 65 24 48 26 50 55 42 26 -7 33 -4
57 24 15 18 40 47 55 65 15 17 32 41 38 53 6 11 24 29 41 39 16 10 38 34 48
54 11 19 28 38 38 40 9 3 30 26 45 52 16 27 43 64 62 84 18 20 45 59 59 86 22
42 27 46 30 28 2 -13 7 -23 12 -23 11 0 88 96 103 128 6 12 19 22 29 22 23 0
106 83 133 133 13 25 25 35 36 32 10 -3 29 10 53 35 20 22 45 40 55 40 20 0
51 30 51 49 0 7 16 19 35 27 37 15 75 65 75 98 0 19 0 19 13 1 11 -15 22 -17
58 -12 49 6 79 34 79 73 0 17 8 27 24 34 13 5 31 18 39 30 11 16 21 19 41 14
33 -8 62 15 71 57 5 24 12 29 36 29 22 0 30 6 35 24 4 19 11 23 42 22 33 -1
37 2 40 27 3 22 7 27 20 21 59 -24 92 -6 92 53 0 33 2 35 25 29 31 -8 61 7 70
34 5 16 10 18 26 9 11 -5 37 -9 57 -7 37 3 37 3 35 45 -2 41 -1 42 23 31 19
-9 33 -9 58 0 18 7 49 12 70 12 70 0 97 31 70 82 -15 29 -15 31 2 23 96 -39
207 -47 244 -17 l21 17 -22 29 -23 29 30 -6 c151 -33 216 -39 344 -34 158 7
195 15 194 44 0 19 8 21 100 26 112 7 226 26 331 55 39 11 120 22 185 25 170
9 388 57 382 85 -3 15 -18 16 216 -8 240 -23 292 -27 292 -20 0 4 -12 10 -27
16 -18 6 21 8 128 7 138 -1 151 0 124 12 -16 8 -36 14 -44 15 -8 0 -12 3 -8 6
3 3 45 1 94 -6 108 -14 393 -1 418 20 16 13 94 11 275 -9 147 -16 206 9 162
68 -24 32 -28 46 -12 36 6 -3 10 -1 10 4 0 6 -4 11 -10 11 -5 0 -10 7 -10 15
0 24 -73 70 -244 154 -447 219 -1031 404 -1786 565 -549 116 -1040 187 -1605
232 -233 18 -797 26 -960 13z" />
    </g>
</svg>