<?xml version="1.0" standalone="no"?>
<!DOCTYPE svg PUBLIC "-//W3C//DTD SVG 20010904//EN" "http://www.w3.org/TR/2001/REC-SVG-20010904/DTD/svg10.dtd">
<svg version="1.0" xmlns="http://www.w3.org/2000/svg" width="300.000000pt" viewBox="0 0 1280.000000 950.000000"
    preserveAspectRatio="xMidYMid meet">
    <metadata>
        Created by potrace 1.15, written by Peter Selinger 2001-2017
    </metadata>
    <g transform="translate(0.000000,950.000000) scale(0.100000,-0.100000)" fill="#fff" stroke="none">
        <path d="M1322 8709 c-116 -37 -218 -147 -242 -263 -7 -35 -9 -986 -8 -3101
l3 -3050 31 -65 c51 -105 130 -172 249 -207 56 -16 190 -18 2269 -21 1215 -1
2225 -6 2245 -10 l36 -8 0 -444 0 -445 -35 -3 c-471 -34 -816 -126 -862 -228
-10 -22 -7 -29 33 -70 79 -81 155 -117 339 -158 582 -129 1685 -106 2035 44
87 37 145 107 145 175 0 31 -5 39 -47 66 -94 59 -301 111 -573 143 -74 9 -146
19 -158 22 l-24 5 4 439 c2 343 6 442 16 452 11 11 445 14 2310 18 1848 5
2305 8 2337 19 174 57 267 169 286 349 12 122 12 5879 -1 6001 -17 161 -82
261 -209 324 l-66 32 -5025 2 c-4988 2 -5025 2 -5088 -18z m9962 -418 c15 -13
16 -215 14 -2928 -3 -2577 -5 -2915 -18 -2923 -9 -6 -1836 -10 -4893 -10
-4636 0 -4878 1 -4885 18 -4 9 -7 1322 -7 2918 0 2404 2 2904 13 2917 9 11 34
17 75 20 34 2 2227 3 4873 3 4088 -1 4813 -3 4828 -15z" />
    </g>
</svg>