<?xml version="1.0" standalone="no"?>
<!DOCTYPE svg PUBLIC "-//W3C//DTD SVG 20010904//EN" "http://www.w3.org/TR/2001/REC-SVG-20010904/DTD/svg10.dtd">
<svg version="1.0" xmlns="http://www.w3.org/2000/svg" width="1280.000000pt" height="640.000000pt"
    viewBox="0 0 1280.000000 640.000000" preserveAspectRatio="xMidYMid meet">
    <metadata>
        Created by potrace 1.15, written by Peter Selinger 2001-2017
    </metadata>
    <g transform="translate(0.000000,640.000000) scale(0.100000,-0.100000)" fill="#fff" stroke="none">
        <path d="M9730 5189 c-607 -7 -1486 -25 -1821 -38 l-185 -6 -105 -51 c-120
-59 -202 -116 -396 -276 -76 -63 -165 -134 -198 -159 -33 -24 -133 -104 -223
-177 -282 -228 -448 -347 -613 -439 -53 -30 -64 -32 -230 -42 -199 -13 -302
-26 -376 -47 -104 -29 -270 -102 -363 -159 -264 -163 -319 -187 -430 -187 -41
-1 -212 3 -380 7 -204 5 -354 4 -452 -4 -763 -59 -1443 -287 -1978 -665 -183
-130 -564 -442 -1140 -935 -507 -435 -741 -630 -781 -651 -78 -41 -76 -150 3
-150 42 0 165 84 323 221 207 179 262 210 399 229 111 15 180 49 343 172 78
59 164 119 190 135 27 15 230 149 453 298 223 149 464 307 535 351 442 274
839 479 1199 618 263 102 610 199 770 216 186 20 402 10 556 -26 58 -14 69
-21 103 -62 21 -26 70 -110 109 -187 90 -178 126 -234 187 -293 34 -32 56 -65
70 -102 28 -75 87 -149 141 -178 39 -20 54 -23 106 -18 48 5 64 3 74 -9 22
-26 14 -87 -24 -198 -40 -116 -39 -141 9 -153 73 -18 166 23 342 149 156 112
211 139 295 145 95 7 138 -16 205 -110 59 -82 124 -154 166 -184 l29 -20 -39
-27 c-86 -60 -108 -157 -59 -264 15 -32 34 -69 43 -82 15 -23 16 -23 47 60 66
175 178 299 346 384 105 53 238 90 363 101 94 9 106 15 77 42 -61 57 -208 54
-374 -8 -60 -22 -110 -40 -112 -40 -2 0 -4 6 -4 14 0 8 -17 36 -37 63 -20 26
-52 67 -70 91 -56 74 -42 108 60 137 114 33 274 166 398 332 79 105 300 463
357 578 103 208 165 405 178 566 l7 77 -37 12 c-76 25 -133 -5 -288 -148 -53
-49 -114 -97 -135 -107 -21 -10 -63 -35 -93 -55 -166 -112 -378 -223 -544
-285 -86 -33 -90 -33 -128 -18 -43 17 -58 38 -58 81 0 60 106 165 235 234 33
17 159 105 281 194 534 392 822 572 1134 707 178 77 330 125 435 137 126 14
359 12 635 -4 129 -8 309 -17 400 -21 91 -3 314 -12 495 -20 182 -8 443 -20
580 -26 349 -15 1457 -23 1650 -12 149 9 165 12 226 41 113 54 198 144 185
196 -11 45 -40 49 -396 57 -420 9 -1884 8 -2670 -2z m-3177 -2555 c30 -29 45
-89 30 -113 -17 -28 -47 -23 -96 15 -58 45 -70 79 -37 106 32 26 73 23 103 -8z" />
    </g>
</svg>